<?xml version="1.0" standalone="no"?>
<!DOCTYPE svg PUBLIC "-//W3C//DTD SVG 20010904//EN"
 "http://www.w3.org/TR/2001/REC-SVG-20010904/DTD/svg10.dtd">
<svg version="1.0" xmlns="http://www.w3.org/2000/svg"
 viewBox="0 0 2600.000000 2600.000000"
 preserveAspectRatio="xMidYMid meet">
<metadata>
Created by potrace 1.15, written by Peter Selinger 2001-2017
</metadata>
<g transform="translate(0.000000,2600.000000) scale(0.100000,-0.100000)"
fill="#000000" stroke="none">
<path d="M12320 21339 c-303 -22 -592 -156 -827 -382 -220 -213 -359 -445
-448 -752 -62 -216 -58 -99 -65 -1850 -3 -880 -6 -1595 -8 -1590 -1 6 -105
465 -231 1022 -126 556 -244 1054 -261 1105 -232 683 -838 1136 -1480 1105
-195 -10 -360 -53 -528 -138 -387 -197 -664 -579 -763 -1050 -27 -129 -38
-438 -20 -575 9 -64 357 -1745 427 -2064 4 -14 -43 61 -104 165 -135 233 -221
350 -355 483 -211 210 -443 351 -703 427 -264 76 -570 74 -815 -6 -676 -220
-1051 -937 -893 -1709 27 -130 93 -315 158 -442 34 -68 318 -566 631 -1108
l568 -985 149 -380 c82 -209 162 -423 177 -475 57 -192 59 -222 65 -795 7
-677 31 -1060 97 -1520 99 -694 294 -1330 556 -1811 93 -172 273 -443 389
-589 122 -152 422 -450 584 -579 389 -310 903 -587 1395 -752 87 -29 117 -34
193 -34 313 0 553 238 555 550 0 153 -50 278 -157 388 -73 75 -121 103 -296
170 -541 208 -896 426 -1221 751 -612 614 -894 1430 -969 2811 -7 113 -15 455
-20 760 -8 538 -9 559 -33 677 -53 256 -79 332 -292 878 l-171 440 -609 1055
c-443 769 -617 1078 -639 1140 -27 76 -31 97 -31 200 0 105 2 120 28 175 34
72 50 91 101 117 61 31 169 22 261 -23 85 -42 189 -137 249 -228 23 -36 308
-527 632 -1089 635 -1103 687 -1185 869 -1367 137 -137 275 -224 418 -261 99
-26 250 -15 352 24 300 118 468 410 452 787 -5 110 -43 298 -448 2215 l-444
2095 0 135 c0 159 16 220 80 315 55 80 126 119 202 112 135 -14 282 -162 350
-351 8 -23 223 -963 479 -2090 255 -1127 475 -2075 488 -2107 60 -150 162
-295 299 -425 273 -261 627 -320 942 -156 84 44 232 187 283 274 83 142 141
321 161 501 8 66 11 908 11 2679 0 2229 2 2593 15 2653 31 147 134 303 230
346 148 68 311 -53 391 -291 18 -53 19 -159 24 -2880 l5 -2825 23 -75 c29 -94
107 -260 160 -336 213 -315 561 -427 880 -283 155 70 313 220 425 404 20 33
498 1088 1063 2345 564 1257 1040 2310 1057 2340 48 86 171 204 253 242 58 28
81 33 139 33 58 0 76 -5 106 -25 49 -32 94 -101 115 -174 24 -87 16 -257 -18
-351 -14 -38 -523 -1179 -1132 -2535 -610 -1356 -1125 -2508 -1146 -2560 -46
-116 -83 -234 -111 -360 -17 -75 -22 -133 -24 -278 l-2 -183 -144 -87 c-919
-560 -1588 -1238 -1893 -1920 -96 -214 -186 -524 -186 -640 0 -159 133 -292
291 -292 162 0 275 97 309 265 133 663 656 1312 1530 1901 168 113 383 244
400 244 7 0 27 -10 44 -23 132 -98 315 -158 491 -160 119 -1 187 13 275 58 36
18 301 173 590 345 697 415 728 434 852 496 224 112 506 221 698 269 258 65
500 58 537 -15 30 -60 6 -215 -52 -335 -54 -110 -149 -226 -341 -415 -347
-340 -892 -808 -1640 -1406 -417 -334 -418 -334 -493 -585 -304 -1016 -825
-1968 -1357 -2479 -251 -241 -488 -390 -763 -479 -153 -50 -210 -81 -287 -159
-100 -99 -164 -251 -164 -388 0 -76 31 -199 67 -267 39 -74 155 -188 229 -225
159 -80 305 -83 528 -8 837 281 1548 974 2161 2106 207 383 433 913 584 1371
l42 126 117 93 c219 175 696 567 912 750 495 419 948 843 1122 1050 415 494
556 1085 387 1618 -61 193 -137 313 -285 451 -181 169 -393 273 -669 328 -138
28 -494 25 -669 -5 -504 -87 -997 -287 -1605 -651 -157 -94 -286 -169 -288
-167 -2 1 456 1026 1018 2277 1053 2345 1092 2434 1133 2566 214 682 -13 1406
-552 1760 -719 473 -1704 130 -2135 -742 -24 -49 -363 -801 -753 -1669 l-709
-1580 -6 2045 c-6 2238 -2 2093 -64 2332 -147 566 -560 1003 -1072 1133 -53
13 -135 27 -182 30 -47 3 -97 6 -111 8 -14 1 -68 -1 -120 -5z"/>
</g>
</svg>
