<?xml version="1.0" standalone="no"?>
<!DOCTYPE svg PUBLIC "-//W3C//DTD SVG 20010904//EN"
 "http://www.w3.org/TR/2001/REC-SVG-20010904/DTD/svg10.dtd">
<svg version="1.0" xmlns="http://www.w3.org/2000/svg"
 viewBox="0 0 2600.000000 2600.000000"
 preserveAspectRatio="xMidYMid meet">
<metadata>
Created by potrace 1.15, written by Peter Selinger 2001-2017
</metadata>
<g transform="translate(0.000000,2600.000000) scale(0.100000,-0.100000)"
fill="#000000" stroke="none">
<path d="M14140 20520 c-346 -48 -662 -206 -919 -458 l-105 -103 -30 23 c-263
197 -529 301 -843 328 -136 12 -233 7 -386 -21 -548 -100 -1009 -496 -1243
-1067 -24 -59 -48 -106 -52 -105 -4 2 -45 17 -92 34 -533 193 -1107 81 -1548
-301 -211 -183 -392 -444 -498 -718 -30 -76 -40 -92 -53 -86 -65 29 -216 76
-302 96 -90 20 -131 23 -304 23 -226 0 -291 -10 -486 -75 -231 -76 -417 -191
-602 -369 -263 -253 -454 -601 -526 -958 -57 -285 -53 -131 -48 -1808 4 -1532
6 -1606 42 -2100 106 -1422 422 -2647 929 -3603 449 -846 1059 -1502 1813
-1948 349 -206 843 -414 1024 -429 203 -18 426 98 532 276 177 299 51 692
-264 822 -35 14 -129 52 -209 83 -736 286 -1331 797 -1755 1505 -477 798 -769
1844 -894 3209 -24 255 -47 647 -40 655 3 3 26 -2 50 -10 80 -29 209 -55 330
-67 386 -39 831 118 1142 401 l54 50 59 -52 c233 -203 482 -325 779 -384 135
-26 397 -24 531 5 183 39 395 125 540 217 l52 33 83 -55 c389 -261 1029 -393
1722 -355 122 7 272 19 332 26 61 7 111 12 113 11 2 -2 -29 -62 -68 -135 -260
-478 -486 -1090 -629 -1706 -62 -265 -65 -291 -47 -364 60 -233 330 -317 511
-159 63 56 82 102 135 334 150 655 358 1204 648 1715 73 130 276 439 319 486
21 24 56 41 138 69 232 81 490 203 652 311 137 91 215 199 253 350 50 193 -2
382 -144 532 -123 130 -311 199 -475 175 -109 -16 -160 -36 -297 -115 -596
-342 -1675 -486 -2312 -308 -88 25 -193 71 -238 105 -61 46 -85 184 -43 251
33 54 131 136 215 181 44 23 351 143 684 268 1559 585 2575 979 3057 1184 241
103 327 124 498 125 106 0 145 -4 209 -22 255 -73 468 -275 585 -556 29 -71
148 -528 255 -986 93 -399 111 -614 111 -1320 -1 -559 -8 -711 -56 -1124 -167
-1450 -624 -2579 -1342 -3322 -393 -407 -854 -685 -1416 -855 -153 -46 -195
-65 -266 -121 -142 -113 -219 -272 -219 -453 0 -162 54 -287 173 -405 108
-107 214 -155 366 -166 95 -7 168 8 410 86 803 261 1476 716 2017 1365 776
931 1278 2282 1443 3885 84 818 67 1866 -40 2423 -56 292 -292 1220 -344 1354
-133 339 -289 582 -523 814 -319 318 -712 500 -1169 541 l-129 12 0 502 c0
275 -5 559 -10 629 -23 275 -87 507 -206 748 -243 488 -662 822 -1165 928
-109 22 -367 33 -469 19z m252 -1151 c179 -38 337 -211 410 -449 22 -75 22
-78 26 -790 l3 -715 -108 -44 c-131 -53 -916 -361 -920 -361 -2 0 -2 404 0
898 3 893 3 897 25 982 43 162 135 314 234 388 120 90 213 115 330 91z m-2087
-244 c84 -40 209 -167 253 -258 47 -96 69 -165 82 -254 7 -54 10 -387 8 -1062
l-3 -983 -510 -192 -510 -193 -3 1196 c-2 1057 -1 1205 13 1275 48 236 189
423 370 488 78 29 221 20 300 -17z m-2182 -1073 c154 -76 272 -240 324 -450
15 -59 17 -191 22 -1147 l6 -1080 -53 -110 c-71 -149 -112 -310 -119 -473 l-6
-123 -58 -53 c-262 -243 -625 -106 -760 287 -48 140 -50 215 -46 1477 4 1299
-2 1209 81 1385 72 152 182 262 308 307 41 14 74 18 144 15 79 -2 100 -7 157
-35z m-2190 -1070 c120 -56 227 -177 288 -323 60 -146 60 -154 57 -934 -4
-800 0 -751 -84 -924 -104 -212 -305 -336 -490 -302 -221 41 -403 265 -444
546 -8 56 -10 283 -8 760 5 767 2 735 84 902 74 150 197 264 322 300 27 7 82
12 127 10 66 -3 94 -9 148 -35z"/>
</g>
</svg>
